mtllib eskeplastikkbunn.mtl

v  293.000000 -145.500000 0.000000
v  293.000000 -145.500000 0.000000
v  293.000000 -145.500000 0.000000
v  293.000000 145.500000 0.000000
v  293.000000 145.500000 0.000000
v  293.000000 145.500000 0.000000
v  -293.000000 145.500000 0.000000
v  -293.000000 145.500000 0.000000
v  -293.000000 145.500000 0.000000
v  -293.000000 -145.500000 0.000000
v  -293.000000 -145.500000 0.000000
v  -293.000000 -145.500000 0.000000
v  292.000000 -144.500000 1.000000
v  292.000000 -144.500000 1.000000
v  292.000000 -144.500000 1.000000
v  -292.000000 -144.500000 1.000000
v  -292.000000 -144.500000 1.000000
v  -292.000000 -144.500000 1.000000
v  -292.000000 144.500000 1.000000
v  -292.000000 144.500000 1.000000
v  -292.000000 144.500000 1.000000
v  292.000000 144.500000 1.000000
v  292.000000 144.500000 1.000000
v  292.000000 144.500000 1.000000
v  293.000000 -145.500000 103.000000
v  293.000000 -145.500000 103.000000
v  293.000000 -145.500000 103.000000
v  293.000000 145.500000 103.000000
v  293.000000 145.500000 103.000000
v  293.000000 145.500000 103.000000
v  -293.000000 145.500000 103.000000
v  -293.000000 145.500000 103.000000
v  -293.000000 145.500000 103.000000
v  -293.000000 -145.500000 103.000000
v  -293.000000 -145.500000 103.000000
v  -293.000000 -145.500000 103.000000
v  292.000000 -144.500000 103.000000
v  292.000000 -144.500000 103.000000
v  292.000000 -144.500000 103.000000
v  292.000000 144.500000 103.000000
v  292.000000 144.500000 103.000000
v  292.000000 144.500000 103.000000
v  -292.000000 144.500000 103.000000
v  -292.000000 144.500000 103.000000
v  -292.000000 144.500000 103.000000
v  -292.000000 -144.500000 103.000000
v  -292.000000 -144.500000 103.000000
v  -292.000000 -144.500000 103.000000

vt  0.000000 1.000000 0.000000
vt  0.000000 1.000000 0.000000
vt  0.000000 1.000000 0.000000
vt  0.000000 1.000000 0.000000
vt  0.000000 1.000000 0.000000
vt  0.000000 1.000000 0.000000
vt  0.000000 0.000000 0.000000
vt  0.000000 0.000000 0.000000
vt  0.000000 0.000000 0.000000
vt  0.000000 0.000000 0.000000
vt  0.000000 0.000000 0.000000
vt  0.000000 0.000000 0.000000
vt  0.009709 0.998294 0.000000
vt  0.009709 0.998294 0.000000
vt  0.009709 0.998294 0.000000
vt  0.009709 0.001706 0.000000
vt  0.009709 0.001706 0.000000
vt  0.009709 0.001706 0.000000
vt  0.009709 0.001706 0.000000
vt  0.009709 0.001706 0.000000
vt  0.009709 0.001706 0.000000
vt  0.009709 0.998294 0.000000
vt  0.009709 0.998294 0.000000
vt  0.009709 0.998294 0.000000
vt  1.000000 1.000000 0.000000
vt  1.000000 1.000000 0.000000
vt  1.000000 1.000000 0.000000
vt  1.000000 1.000000 0.000000
vt  1.000000 1.000000 0.000000
vt  1.000000 1.000000 0.000000
vt  1.000000 0.000000 0.000000
vt  1.000000 0.000000 0.000000
vt  1.000000 0.000000 0.000000
vt  1.000000 0.000000 0.000000
vt  1.000000 0.000000 0.000000
vt  1.000000 0.000000 0.000000
vt  1.000000 0.998294 0.000000
vt  1.000000 0.998294 0.000000
vt  1.000000 0.998294 0.000000
vt  1.000000 0.998294 0.000000
vt  1.000000 0.998294 0.000000
vt  1.000000 0.998294 0.000000
vt  1.000000 0.001706 0.000000
vt  1.000000 0.001706 0.000000
vt  1.000000 0.001706 0.000000
vt  1.000000 0.001706 0.000000
vt  1.000000 0.001706 0.000000
vt  1.000000 0.001706 0.000000

vn  0.000000 0.000000 -1.000000
vn  1.000000 0.000000 0.000000
vn  0.000000 -1.000000 0.000000
vn  0.000000 0.000000 -1.000000
vn  1.000000 0.000000 0.000000
vn  0.000000 1.000000 0.000000
vn  0.000000 0.000000 -1.000000
vn  0.000000 1.000000 0.000000
vn  -1.000000 0.000000 0.000000
vn  0.000000 0.000000 -1.000000
vn  -1.000000 0.000000 0.000000
vn  0.000000 -1.000000 0.000000
vn  0.000000 0.000000 1.000000
vn  0.000000 1.000000 0.000000
vn  -1.000000 0.000000 0.000000
vn  0.000000 0.000000 1.000000
vn  0.000000 1.000000 0.000000
vn  1.000000 0.000000 0.000000
vn  0.000000 0.000000 1.000000
vn  0.000000 -1.000000 0.000000
vn  1.000000 0.000000 0.000000
vn  0.000000 0.000000 1.000000
vn  0.000000 -1.000000 0.000000
vn  -1.000000 0.000000 0.000000
vn  1.000000 0.000000 0.000000
vn  0.000000 -1.000000 0.000000
vn  0.000000 0.000000 1.000000
vn  1.000000 0.000000 0.000000
vn  0.000000 1.000000 0.000000
vn  0.000000 0.000000 1.000000
vn  0.000000 1.000000 0.000000
vn  -1.000000 0.000000 0.000000
vn  0.000000 0.000000 1.000000
vn  -1.000000 0.000000 0.000000
vn  0.000000 -1.000000 0.000000
vn  0.000000 0.000000 1.000000
vn  0.000000 0.000000 1.000000
vn  0.000000 1.000000 0.000000
vn  -1.000000 0.000000 0.000000
vn  0.000000 0.000000 1.000000
vn  0.000000 -1.000000 0.000000
vn  -1.000000 0.000000 0.000000
vn  0.000000 0.000000 1.000000
vn  0.000000 -1.000000 0.000000
vn  1.000000 0.000000 0.000000
vn  0.000000 0.000000 1.000000
vn  0.000000 1.000000 0.000000
vn  1.000000 0.000000 0.000000


g 0
g 1
usemtl MTL0
f 10/10/10  4/4/4  1/1/1
f 25/25/25  2/2/2  5/5/5
g 2
usemtl MTL1
f 35/35/35  12/12/12  3/3/3
f 35/35/35  3/3/3  26/26/26
g 3
usemtl MTL0
f 10/10/10  7/7/7  4/4/4
f 29/29/29  6/6/6  8/8/8
f 28/28/28  25/25/25  5/5/5
g 4
usemtl MTL2
f 32/32/32  9/9/9  11/11/11
g 5
usemtl MTL0
f 31/31/31  29/29/29  8/8/8
g 6
usemtl MTL2
f 34/34/34  32/32/32  11/11/11
g 7
usemtl MTL0
f 19/19/19  16/16/16  13/13/13
f 38/38/38  14/14/14  17/17/17
f 22/22/22  19/19/19  13/13/13
f 42/42/42  24/24/24  15/15/15
f 42/42/42  15/15/15  39/39/39
f 48/48/48  18/18/18  21/21/21
f 47/47/47  38/38/38  17/17/17
g 8
usemtl MTL2
f 44/44/44  20/20/20  23/23/23
g 9
usemtl MTL0
f 48/48/48  21/21/21  45/45/45
g 10
usemtl MTL2
f 44/44/44  23/23/23  41/41/41
g 11
usemtl MTL0
f 40/40/40  27/27/27  30/30/30
f 46/46/46  36/36/36  27/27/27
f 40/40/40  37/37/37  27/27/27
f 46/46/46  27/27/27  37/37/37
f 40/40/40  30/30/30  33/33/33
f 46/46/46  33/33/33  36/36/36
f 43/43/43  40/40/40  33/33/33
f 46/46/46  43/43/43  33/33/33
